PathFileType	4	(X/Y/Z)	/Users/mathieubourgeois/Desktop/Analyse/Traitement/Sujet_07/Data/Transformed_Sujet_07_velo_60.trc
DataRate	CameraRate	NumFrames	NumMarkers	Units	OrigDataRate	OrigDataStartFrame	OrigNumFrames
120.000000	120.000000	4	36	mm	120.000000	467	1868
Frame#	Time	RFHD			LFHD			RBHD			LBHD			C7			CLAV			RSHO			LSHO			STRN			T10			RBWT			LBWT			RFWT			LFWT			RKNI			LKNI			RKNE			LKNE			LANI			RANI			LANE			RANE			LTOE			RTOE			LHEE			RHEE			RHUM			LHUM			RRAD			LRAD			RWRA			RWRB			LWRA			LWRB			LCAR			RCAR			
		X1	Y1	Z1	X2	Y2	Z2	X3	Y3	Z3	X4	Y4	Z4	X5	Y5	Z5	X6	Y6	Z6	X7	Y7	Z7	X8	Y8	Z8	X9	Y9	Z9	X10	Y10	Z10	X11	Y11	Z11	X12	Y12	Z12	X13	Y13	Z13	X14	Y14	Z14	X15	Y15	Z15	X16	Y16	Z16	X17	Y17	Z17	X18	Y18	Z18	X19	Y19	Z19	X20	Y20	Z20	X21	Y21	Z21	X22	Y22	Z22	X23	Y23	Z23	X24	Y24	Z24	X25	Y25	Z25	X26	Y26	Z26	X27	Y27	Z27	X28	Y28	Z28	X29	Y29	Z29	X30	Y30	Z30	X31	Y31	Z31	X32	Y32	Z32	X33	Y33	Z33	X34	Y34	Z34	X35	Y35	Z35	X36	Y36	Z36	

468	3.891666666666667	242.9501647949218	1355.882934570312	149.0534973144531	247.1679992675781	1337.7666015625	17.95485496520991	202.3675537109375	1502.383178710938	144.3664245605468	204.6823272705078	1498.777709960938	-0.1708563566208553	45.13395309448241	1500.949462890625	58.48417282104484	22.15531730651855	1363.701293945312	66.43438720703116	64.39721679687497	1429.589599609375	214.3602142333984	78.76082611083986	1457.9384765625	-75.56721496582038	-137.0124969482422	1293.832397460938	59.60114288330069	-206.9571075439453	1523.425659179688	48.85787582397449	-447.1317138671875	1297.666137695312	117.5968017578124	-451.2710266113281	1293.994262695312	3.855994462966785	-285.8450317382812	1218.396118164062	160.6119689941405	-294.4978637695312	1217.81787109375	-52.71785736083995	5.894769668579086	887.3003540039062	122.3326187133788	-196.6536865234375	702.2348022460938	-35.64572906494147	-15.18736362457278	945.2117309570312	224.4761962890624	-170.8367767333984	750.3021240234375	-141.8208312988282	-349.2245483398438	352.9638366699219	-53.10628890991217	-137.8783264160157	532.0477294921875	125.1649475097656	-369.2614135742188	347.3468627929688	-140.9065399169923	-166.9034881591797	528.0836181640625	212.9788818359374	-205.6449737548828	212.3428344726562	-109.6592178344727	30.06180000305173	439.8526306152344	201.2225189208984	-428.4761657714844	358.2566833496094	-103.8114318847657	-224.9271392822266	510.4858703613281	169.1948699951171	68.63267517089841	1093.299194335938	255.8289184570312	91.08666229248048	1116.790161132812	-154.9365844726563	115.1851425170898	1119.855224609375	298.9577331542968	154.6893615722657	1135.455078125	-166.4149627685547	318.0665893554687	937.1481323242188	254.184341430664	281.1448364257812	899.7044067382812	308.2783203125	315.9048156738281	930.5252075195312	-104.3692398071289	277.0822448730469	886.8416748046875	-155.8265075683594	372.0386657714844	914.6234741210938	-193.2562255859375	371.2254638671874	925.7577514648438	341.3218383789062	
469	3.9	242.8144836425781	1355.794677734375	148.3087921142578	246.8698120117188	1337.633178710938	17.30905914306636	202.1005554199218	1502.303100585938	143.6210937499999	204.2678527832031	1498.639892578125	-0.8859764337540341	44.80496978759765	1500.834716796875	57.99123764038077	21.80525016784667	1363.57373046875	65.97192382812491	64.19676208496091	1429.439819335938	213.9169616699218	78.20727539062501	1457.751831054688	-76.11875915527351	-137.3252563476562	1293.764282226562	59.29233932495108	-207.2875823974609	1523.337524414062	48.87073516845691	-447.2777709960938	1297.387329101562	118.1294631958006	-451.7485046386719	1293.92041015625	4.414488315582141	-285.9878845214844	1218.03857421875	160.7277679443358	-294.9076538085938	1218.00439453125	-52.5837631225587	3.746212244033798	880.948486328125	122.227180480957	-192.1822662353516	705.924072265625	-36.28179168701178	-17.51260566711429	938.9447021484375	224.1760253906249	-166.5623321533203	753.643798828125	-142.4737243652345	-353.0422668457031	360.7574157714844	-52.99913787841803	-132.0152435302735	523.3744506835938	125.5884628295898	-373.3587951660156	355.4786071777344	-140.7503662109376	-162.6085662841797	518.5877075195312	213.145767211914	-212.0011596679688	217.8704833984375	-109.7777938842774	36.7402648925781	434.5158996582031	200.8423461914062	-432.4295349121094	367.3777770996094	-103.5884552001954	-220.5296173095703	500.0149536132812	169.5862426757812	68.52275848388669	1093.199096679688	255.6153869628906	90.86596679687501	1116.59228515625	-155.1546020507813	115.0481033325195	1119.789428710938	298.7573852539062	154.4314575195313	1135.30126953125	-166.6646881103516	317.9963378906249	937.1453857421875	254.1918182373047	281.0679016113281	899.7315673828125	308.2754821777344	315.48193359375	930.3269653320312	-104.4281539916992	276.9399108886719	886.903076171875	-155.93408203125	371.9984741210938	914.6505126953125	-193.2184906005859	371.1262817382812	925.8029174804688	341.3523254394531	
470	3.908333333333333	242.6672058105468	1355.721801757812	147.667007446289	246.5166931152344	1337.516235351562	16.56845283508295	201.9731903076172	1502.204467773438	142.9222106933593	203.9123382568359	1498.484619140625	-1.609609723091192	44.52076339721679	1500.72802734375	57.50125503540031	21.46190071105956	1363.532348632812	65.54568481445304	64.02455902099607	1429.328979492188	213.5364837646484	77.76246643066408	1457.5400390625	-76.75202178955085	-137.6250457763672	1293.68115234375	59.02602767944327	-207.6162109375	1523.273071289062	48.85940933227527	-447.39306640625	1297.116333007812	118.6701736450194	-452.1461181640625	1293.860473632812	4.91421794891344	-286.067138671875	1217.623168945312	160.8419189453124	-295.310791015625	1218.158447265625	-52.33212661743175	1.435563325881943	874.2750854492188	122.0787200927734	-187.5418090820312	709.793701171875	-36.91643524169928	-20.06858253479007	932.36279296875	223.8790893554687	-162.0217590332031	757.1638793945312	-143.063461303711	-356.6159362792969	368.8440246582031	-52.84595870971686	-128.6407928466797	514.3174438476562	125.6990890502929	-377.1001586914062	363.9723815917969	-140.6346435546876	-158.4903411865235	508.9703369140625	213.2551269531249	-218.3233642578125	223.6360778808594	-109.6067733764649	42.20893859863279	429.2499084472656	201.4886627197265	-435.6937561035156	377.4429321289062	-103.9831161499024	-215.8233642578125	489.2622375488281	169.5067443847656	68.39703369140622	1093.109741210938	255.4459228515624	90.54052734375001	1116.371948242188	-155.4055175781251	114.9216156005859	1119.741088867188	298.5269470214843	154.1163024902344	1135.151123046875	-166.9142150878907	317.9494628906249	937.1602783203125	254.1869354248047	281.0039367675781	899.751708984375	308.2521057128906	315.3645324707031	930.357177734375	-104.4521713256836	276.86376953125	886.9168090820312	-155.9293975830078	371.9515075683594	914.6920776367188	-193.20068359375	371.0397338867187	925.8514404296875	341.3877563476562	
471	3.916666666666667	242.4118957519531	1355.628662109375	146.9855346679687	246.2346649169922	1337.37744140625	15.9280977249145	201.7421417236328	1502.1328125	142.2177581787109	203.5711669921875	1498.334716796875	-2.337329626083441	44.2388801574707	1500.616455078125	56.93912124633781	21.11555290222167	1363.282104492188	65.08402252197257	63.869026184082	1429.230834960938	213.0886688232421	77.2827606201172	1457.338623046875	-77.39781188964851	-137.8079223632812	1293.656005859375	58.75923919677725	-207.9189910888672	1523.192749023438	48.81652832031238	-447.462158203125	1296.8115234375	119.2587356567381	-452.5063171386719	1293.826904296875	5.504237651824817	-286.1058654785156	1217.200805664062	160.9675903320311	-295.6023559570312	1218.311767578125	-52.08956527709972	-1.105079531669632	867.0628051757812	122.6959533691406	-182.5484161376953	713.8392333984375	-37.58966064453131	-22.75279808044436	925.531982421875	223.6080169677734	-157.3659057617187	760.8986206054688	-143.6417999267579	-359.7951049804688	377.2506713867188	-52.76833343505866	-125.8560333251953	505.0119934082031	125.7378768920898	-380.6251831054688	372.7429504394531	-140.4981079101563	-154.6358184814453	499.2780151367188	213.3282928466796	-223.8034973144531	230.2306213378906	-109.6955947875977	47.48598098754881	423.1538391113281	201.7965850830078	-438.5444946289062	386.584228515625	-103.2751846313477	-211.5665435791016	478.7901916503906	169.5768127441406	68.29972839355466	1093.055786132812	255.2473449707031	90.24475860595705	1116.157958984375	-155.5063629150391	114.77978515625	1119.727416992188	298.2748718261718	153.7750091552735	1134.97216796875	-167.1321716308594	317.8893432617187	937.1546020507812	254.1881561279297	280.9327087402343	899.783203125	308.2514038085938	315.2896728515625	930.4329833984375	-104.4484481811524	276.8055725097656	886.9116821289062	-155.9096374511719	371.9063415527344	914.7077026367188	-193.1660919189453	370.9404296874999	925.8902587890625	341.4219360351562	
